<svg xmlns="http://www.w3.org/2000/svg" xml:space="preserve" width="400" height="400" viewBox="0 0 105.833 105.833"><path d="M88.314 109.205c-5.517 0-10.062 4.544-10.062 10.062s4.545 10.063 10.062 10.063h46.959c1.892 0 3.354 1.461 3.354 3.354 0 1.892-1.462 3.354-3.354 3.354h-13.417a3.354 3.354 0 0 0-3.354 3.354 3.354 3.354 0 0 0 3.354 3.354h13.417c5.517 0 10.062-4.545 10.062-10.062 0-5.518-4.545-10.063-10.062-10.063H88.314c-1.892 0-3.354-1.462-3.354-3.354 0-1.892 1.462-3.354 3.354-3.354h3.355a3.354 3.354 0 0 0 3.354-3.354 3.354 3.354 0 0 0-3.354-3.354z" style="baseline-shift:baseline;display:inline;overflow:visible;vector-effect:none;fill:#000;stroke-width:8.81942;stroke-linecap:round;stroke-linejoin:round;enable-background:accumulate;stop-color:#000" transform="translate(-63.953 -41.996)"/><path d="M9.439 16.466a1.5 1.5 0 0 1 0-2.122l4.9-4.9a1.5 1.5 0 0 1 2.122 0l2.095 2.1a1.499 1.499 0 0 1 0 2.122L14.216 18c-.684.726-1.014 1.021-1.561 1a1.498 1.498 0 0 1-1.121-.438zm4.659.242-2.8-2.8-1.147 1.147a.5.5 0 0 0 0 .708l2.095 2.095a.5.5 0 0 0 .708 0z" style="fill:#000" transform="translate(-35.336 -54.734) scale(6.77333)"/></svg>