<?xml version="1.0" encoding="UTF-8" standalone="no"?>
<!-- Created with Inkscape (http://www.inkscape.org/) -->

<svg
   width="400"
   height="400"
   viewBox="0 0 105.83333 105.83333"
   version="1.1"
   id="svg1"
   xml:space="preserve"
   id="svg1"
   xml:space="preserve"
   xmlns="http://www.w3.org/2000/svg"><path
       style="baseline-shift:baseline;display:inline;overflow:visible;vector-effect:none;fill:#000000;stroke-width:8.81942;stroke-linecap:round;stroke-linejoin:round;enable-background:accumulate;stop-color:#000000"
       d="m 88.314465,109.20456 c -5.51759,0 -10.06251,4.54483 -10.06251,10.06252 0,5.51769 4.54492,10.06251 10.06251,10.06251 h 46.958355 c 1.8924,0 3.35418,1.46177 3.35418,3.35417 0,1.89239 -1.46178,3.35417 -3.35418,3.35417 h -13.41668 a 3.3541702,3.3541702 0 0 0 -3.35417,3.35416 3.3541702,3.3541702 0 0 0 3.35417,3.35417 h 13.41668 c 5.51763,0 10.06251,-4.54487 10.06251,-10.0625 0,-5.51764 -4.54488,-10.06252 -10.06251,-10.06252 H 88.314465 c -1.89225,0 -3.35418,-1.46183 -3.35418,-3.35416 0,-1.89234 1.46193,-3.35418 3.35418,-3.35418 h 3.35417 a 3.3541702,3.3541702 0 0 0 3.35417,-3.35417 3.3541702,3.3541702 0 0 0 -3.35417,-3.35417 z"
       id="path2" /><g
       id="g3"
       transform="matrix(6.7733333,0,0,6.7733333,28.617001,-12.737642)"><path
         fill="#000000"
         d="m 9.439,16.466 c -0.5862397,-0.585864 -0.5862397,-1.536136 0,-2.122 l 4.9,-4.9 c 0.585864,-0.5862397 1.536136,-0.5862397 2.122,0 l 2.095,2.1 c 0.586793,0.585635 0.586793,1.536365 0,2.122 L 14.216,18 h 2.531 c 0.666666,0 0.666666,1 0,1 h -4.092 c -0.418466,0.01713 -0.824992,-0.141713 -1.121,-0.438 z m 4.658875,0.242125 -2.8,-2.8 L 10.151,15.055 c -0.1958584,0.195364 -0.1958584,0.512636 0,0.708 l 2.095,2.095 c 0.195364,0.195858 0.512636,0.195858 0.708,0 z"
         id="path1-5"
         style="fill:#000000" /></g></svg>
