<?xml version="1.0" encoding="UTF-8" standalone="no"?>
<svg
   width="512"
   height="512"
   viewBox="2 2 17 17"
   version="1.1"
   id="svg1"
   xmlns="http://www.w3.org/2000/svg">
  <path
     fill="#000000"
     d="m 9.439,16.466 c -0.5862397,-0.585864 -0.5862397,-1.536136 0,-2.122 l 4.9,-4.9 c 0.585864,-0.5862397 1.536136,-0.5862397 2.122,0 l 2.095,2.1 c 0.586793,0.585635 0.586793,1.536365 0,2.122 L 14.216,18 h 2.531 c 0.666666,0 0.666666,1 0,1 h -4.092 c -0.418466,0.01713 -0.824992,-0.141713 -1.121,-0.438 z m 4.658875,0.242125 -2.8,-2.8 L 10.151,15.055 c -0.1958584,0.195364 -0.1958584,0.512636 0,0.708 l 2.095,2.095 c 0.195364,0.195858 0.512636,0.195858 0.708,0 z"
     id="path1"
     style="fill:#000000" />
  <path
     id="rect1"
     style="fill:#000000"
     d="M 2.9296875 -2.9296875 L 2.9296875 -7.2265625 L 2.9296875 -8.203125 L 2.9296875 -12.5 L 8.203125 -12.5 L 8.203125 -8.203125 L 12.5 -8.203125 L 12.5 -2.9296875 L 8.203125 -2.9296875 L 2.9296875 -2.9296875 z M 3.90625 -3.90625 L 7.2265625 -3.90625 L 7.2265625 -7.2265625 L 3.90625 -7.2265625 L 3.90625 -3.90625 z M 8.203125 -3.90625 L 11.523438 -3.90625 L 11.523438 -7.2265625 L 8.203125 -7.2265625 L 8.203125 -3.90625 z M 3.90625 -8.203125 L 7.2265625 -8.203125 L 7.2265625 -11.523438 L 3.90625 -11.523438 L 3.90625 -8.203125 z "
     transform="scale(1,-1)" />
</svg>
