<?xml version="1.0" encoding="UTF-8" standalone="no"?>
<svg
   width="512"
   height="512"
   viewBox="0 0 20 20"
   version="1.1"
   id="svg1"
   xml:space="preserve"
   xmlns="http://www.w3.org/2000/svg">
  <path
     fill="#000000"
     d="M 8.081,16 H 6 C 4.8954305,16 4,15.104569 4,14 V 6 C 4,4.8954305 4.8954305,4 6,4 h 8 c 1.104569,0 2,0.8954305 2,2 v 2.079 c 0.368,0.09 0.71,0.265 1,0.51 V 6 C 17,4.3431458 15.656854,3 14,3 H 6 C 4.3431458,3 3,4.3431458 3,6 v 8 c 0,1.656854 1.3431458,3 3,3 H 8.591 C 8.3466241,16.710147 8.1721329,16.368007 8.081,16 Z m 1.358,0.466 c -0.5862397,-0.585864 -0.5862397,-1.536136 0,-2.122 l 4.9,-4.9 c 0.585864,-0.5862397 1.536136,-0.5862397 2.122,0 l 2.095,2.1 c 0.586793,0.585635 0.586793,1.536365 0,2.122 L 14.216,18 h 2.531 c 0.666666,0 0.666666,1 0,1 h -4.092 c -0.418466,0.01713 -0.824992,-0.141713 -1.121,-0.438 z m 4.658875,0.242125 -2.8,-2.8 L 10.151,15.055 c -0.1958584,0.195364 -0.1958584,0.512636 0,0.708 l 2.095,2.095 c 0.195364,0.195858 0.512636,0.195858 0.708,0 z"
     id="path1" />
</svg>
